# xmcd
#
# Track frame offsets: 
#        150
#        5679
#        22661
#        43185
#        60590
#        71256
#        92001
#        108483
#        122363
#        139706
#        151674
#        160176
#
# Disc length: 2237 seconds
#
# Revision: 6
# Processed by: cddbd v1.5.2PL0 Copyright (c) Steve Scherf et al.
# Submitted via: ExactAudioCopy v0.95a4
#
DISCID=8808bb0c
DTITLE=Shaver - Victory
DYEAR=1998
DGENRE=Folk
TTITLE0=Son Of Calvary
TTITLE1=You Can't Beat Jesus Christ
TTITLE2=Cowboy Who Started The Fight
TTITLE3=Live Forever
TTITLE4=I'm In Love
TTITLE5=If I Give My Soul
TTITLE6=When The Fallen Angels Fly
TTITLE7=Christian Soldier
TTITLE8=My Mother's Name Is Victory
TTITLE9=Old Five And Dimers
TTITLE10=Presents From The Past
TTITLE11=The Bow And The Arrow
EXTD=Mario´s Musik
EXTT0=
EXTT1=
EXTT2=
EXTT3=
EXTT4=
EXTT5=
EXTT6=
EXTT7=
EXTT8=
EXTT9=
EXTT10=
EXTT11=
PLAYORDER=
